# xmcd
# 
# Track frame offsets:
#     150
#     17158
#     36320
#     54260
#     76511
#     96012
#     114907
#     129233
#     146213
#     162854
# 
# Disc length: 2386
# 
# Revision: 1
# Processed by: cddbd v1.5.2PL0 Copyright (c) Steve Scherf et al.
# Submitted via: fre:ac v1.0.31
# 
DISCID=7209500a
DTITLE=Elvin Bishop - Can't Even Do Wrong Right
DYEAR=2014
DGENRE=Blues
TTITLE0=Can't Even Do Wrong Right
TTITLE1=Blues With A Feeling
TTITLE2=Old School
TTITLE3=Let Your Woman Have Her Way
TTITLE4=No More Doggin'
TTITLE5=Everybody's In The Same Boat
TTITLE6=Dancin'
TTITLE7=Honest I Do
TTITLE8=Bo Weevil
TTITLE9=Hey-Ba-Ba-Re-Bop
EXTD=
EXTT0=
EXTT1=
EXTT2=
EXTT3=
EXTT4=
EXTT5=
EXTT6=
EXTT7=
EXTT8=
EXTT9=
PLAYORDER=
